<svg xmlns="http://www.w3.org/2000/svg" width="140" height="34" viewBox="0 0 140 34">
  <g id="组_2954" data-name="组 2954" transform="translate(-32 -12.004)">
    <path id="路径_16" data-name="路径 16" d="M59.851,24.034h3.316l4.221,6.077V24.034H70.4V35.9H67.539L63.62,30.111V35.9H60V24.034Zm22.008,3.183h1.055V26.06l3.166-2.026v3.183h1.809v2.6H86.08v3.472h1.809v2.315H85.025a2.021,2.021,0,0,1-2.11-2.026V29.677H81.859v-2.46Zm-5.125-.434a4.6,4.6,0,0,1,4.673,4.485,1.769,1.769,0,0,1-.151.868c-2.11,0-3.919.145-5.879.145h0a1.48,1.48,0,0,0,1.507,1.447,1.89,1.89,0,0,0,1.206-.579h3.015a4.652,4.652,0,0,1-8.894-1.736,4.418,4.418,0,0,1,4.522-4.63Zm0,2.46a1.482,1.482,0,0,0-1.507,1.447v.145h2.864v-.145a1.451,1.451,0,0,0-1.357-1.447ZM18.4,3.2C9.2,3.2.611,10.289.008,19.26c-.6,10.128,10.4,17.94,19.747,17.94h28.49a7.4,7.4,0,0,0,7.386-7.379V23.455H91.054V18.1H43.873v5.353h3.618l.151,7.668H21.564c-6.03,0-13.265-5.064-12.813-11.574.3-5.787,6.03-10.417,11.908-10.417H38.145a8.708,8.708,0,0,1,7.688,4.051H55.48C53.219,7.4,46.737,3.2,40.1,3.2ZM58.645,5.515h6.331l2.864,6.077L70.7,5.515h6.482l2.864,6.077,2.864-6.077h6.03L83.819,16.8H77.337l-3.618-6.655-3.467,6.8H63.318Z" transform="translate(32.016 8.804)" fill="#fff" fill-rule="evenodd"/>
    <text id="长城网科" transform="translate(128 24.56)" fill="#fff" font-size="11" font-family="MicrosoftYaHei, Microsoft YaHei"><tspan x="0" y="0">长城网科</tspan></text>
    <text id="智慧医疗" transform="translate(128 42.317)" fill="#fff" font-size="11" font-family="MicrosoftYaHei, Microsoft YaHei"><tspan x="0" y="0">智慧医疗</tspan></text>
  </g>
</svg>
