<svg xmlns="http://www.w3.org/2000/svg" width="160" height="38" viewBox="0 0 160 38">
  <g id="组_720" data-name="组 720" transform="translate(-2.078 -6.302)">
    <path id="路径_16" data-name="路径 16" d="M65.765,26.485h3.644l4.638,6.791V26.485h3.313v13.26H74.212l-4.306-6.468v6.468H65.931V26.485Zm24.182,3.557h1.159V28.749l3.478-2.264v3.557h1.988v2.911H94.584v3.881h1.988v2.587H93.425a2.238,2.238,0,0,1-2.319-2.264V32.791H89.947V30.043Zm-5.631-.485A5.1,5.1,0,0,1,89.45,34.57a2.007,2.007,0,0,1-.166.97c-2.319,0-4.306.162-6.46.162h0a1.64,1.64,0,0,0,1.656,1.617,2.063,2.063,0,0,0,1.325-.647h3.313a5.1,5.1,0,0,1-9.772-1.94,4.9,4.9,0,0,1,4.969-5.174Zm0,2.749a1.641,1.641,0,0,0-1.656,1.617v.162h3.147v-.162a1.61,1.61,0,0,0-1.491-1.617ZM20.217,3.2C10.114,3.2.673,11.123.01,21.149-.652,32.468,11.439,41.2,21.708,41.2h31.3a8.206,8.206,0,0,0,8.116-8.247V25.838H100.05V19.855H48.208v5.983h3.975l.166,8.57H23.7c-6.625,0-14.575-5.66-14.078-12.936C9.948,15,16.242,9.83,22.7,9.83H41.914a9.528,9.528,0,0,1,8.447,4.528h10.6C58.477,7.889,51.355,3.2,44.068,3.2H20.217ZM64.44,5.787H71.4l3.147,6.791L77.69,5.787h7.122l3.147,6.791,3.147-6.791h6.625L92.1,18.4H84.978L81,10.962l-3.809,7.6H69.574Z" transform="translate(2.094 3.102)" fill="#577aaf" fill-rule="evenodd"/>
    <g id="组_15" data-name="组 15" transform="translate(114.078 7.332)">
      <text id="长城网科" transform="translate(0 13)" fill="#577aaf" font-size="12" font-family="MicrosoftYaHei, Microsoft YaHei"><tspan x="0" y="0">长城网科</tspan></text>
      <text id="智慧医疗" transform="translate(0 31.501)" fill="#577aaf" font-size="12" font-family="MicrosoftYaHei, Microsoft YaHei"><tspan x="0" y="0">智慧医疗</tspan></text>
    </g>
  </g>
</svg>
